<svg width="135" height="143" viewBox="0 0 135 143" fill="none" xmlns="http://www.w3.org/2000/svg">
<path d="M52.208 103.927C52.208 103.927 107.005 99.4817 121.317 25.4465C121.317 25.4465 131.438 37.4543 134.231 48.677C134.231 48.677 133.88 74.1184 107.356 90.5793C107.356 90.5793 78.3838 107.931 52.208 103.927Z" fill="#4B936A"/>
<path d="M42.083 99.931C42.083 99.931 102.47 85.2083 83.2744 12.8841C83.2744 12.8841 79.083 4.45832 74.5479 0.192694C74.5479 0.192694 90.9502 -2.86981 113.985 15.4232C113.985 15.4232 112.591 92.8216 42.083 99.931Z" fill="#0D5448"/>
<path d="M97.1885 4.89966C97.1885 4.89966 106.646 73.6614 63.5557 94.9895C63.5557 94.9895 108.954 81.2747 113.985 15.4231C113.985 15.4231 104.864 7.84106 97.1885 4.89966Z" fill="#4B936A"/>
<path d="M52.208 103.927C52.208 103.927 107.235 98.8176 121.317 25.4465C121.317 25.4465 126.208 31.5208 128.579 35.8293C128.579 35.8293 123.423 97.8098 52.208 103.927Z" fill="#0D5448"/>
<path d="M58.0947 18.384C58.0947 18.384 52.833 19.3489 46.6885 23.72C49.1807 27.9075 51.1455 32.0208 52.6885 35.8372C54.3838 39.7278 56.9111 46.5833 57.9893 54.7083C58.0322 55.0051 58.0674 55.2473 58.0908 55.4387C58.0986 55.5012 58.1064 55.5637 58.1143 55.6262C58.1377 55.8137 58.1455 55.9231 58.1455 55.9231H58.1416C59.4346 67.4504 57.6533 81.3059 46.4697 92.8762C46.4697 92.8762 85.9697 66.4856 58.0947 18.384Z" fill="#12499E"/>
<path d="M134.567 69.5755C129.509 86.3489 122.063 97.7239 114.505 105.447C110.13 110.134 104.935 114.009 99.1845 116.884C98.8408 117.064 98.5087 117.22 98.1767 117.384C98.0829 117.431 97.997 117.478 97.9033 117.521C90.7978 120.958 85.6845 121.517 85.6845 121.517C80.5204 122.536 75.1103 122.81 69.5986 122.224C40.1533 119.087 18.8251 92.6809 21.9618 63.2356C23.1064 52.4934 27.3564 42.8372 33.7157 35.0481V35.0716L33.7236 35.0364C36.7197 31.3684 40.1884 28.1145 44.0243 25.3606C45.5868 24.345 46.6884 23.72 46.6884 23.72C52.8329 19.3489 58.0947 18.3841 58.0947 18.3841C85.9657 66.4856 46.4697 92.8763 46.4697 92.8763C46.4697 92.8763 72.7392 82.0833 78.6728 47.095C80.8837 31.8294 77.1103 18.7825 76.9775 18.3216C74.6611 10.6302 71.5204 7.99344 71.5204 7.99344L69.1064 7.88797L69.1103 7.89969C34.3329 6.98953 4.12981 32.9348 0.383717 68.1262C-3.55378 105.142 23.2587 138.345 60.2743 142.286C97.29 146.228 130.493 119.411 134.434 82.3958C134.895 78.0559 134.923 73.7708 134.567 69.5755Z" fill="#3474BA"/>
</svg>
