<svg width="200" height="200" viewBox="0 0 200 200" fill="none" xmlns="http://www.w3.org/2000/svg">
<path d="M0 200H200V0H0V200Z" fill="#666666"/>
<path d="M85.208 132.927C85.208 132.927 140.005 128.482 154.317 54.4465C154.317 54.4465 164.438 66.4543 167.231 77.677C167.231 77.677 166.88 103.118 140.356 119.579C140.356 119.579 111.384 136.931 85.208 132.927Z" fill="#4B936A"/>
<path d="M75.083 128.931C75.083 128.931 135.47 114.208 116.274 41.8841C116.274 41.8841 112.083 33.4583 107.548 29.1927C107.548 29.1927 123.95 26.1302 146.985 44.4232C146.985 44.4232 145.591 121.822 75.083 128.931Z" fill="#0D5448"/>
<path d="M130.188 33.8997C130.188 33.8997 139.646 102.661 96.5557 123.99C96.5557 123.99 141.954 110.275 146.985 44.4231C146.985 44.4231 137.864 36.8411 130.188 33.8997Z" fill="#4B936A"/>
<path d="M85.208 132.927C85.208 132.927 140.235 127.818 154.317 54.4465C154.317 54.4465 159.208 60.5208 161.579 64.8293C161.579 64.8293 156.423 126.81 85.208 132.927Z" fill="#0D5448"/>
<path d="M91.0947 47.384C91.0947 47.384 85.833 48.3489 79.6885 52.72C82.1807 56.9075 84.1455 61.0208 85.6885 64.8372C87.3838 68.7278 89.9111 75.5833 90.9893 83.7083C91.0322 84.0051 91.0674 84.2473 91.0908 84.4387C91.0986 84.5012 91.1064 84.5637 91.1143 84.6262C91.1377 84.8137 91.1455 84.9231 91.1455 84.9231H91.1416C92.4346 96.4504 90.6533 110.306 79.4697 121.876C79.4697 121.876 118.97 95.4856 91.0947 47.384Z" fill="#12499E"/>
<path d="M167.567 98.5755C162.509 115.349 155.063 126.724 147.505 134.447C143.13 139.134 137.935 143.009 132.185 145.884C131.841 146.064 131.509 146.22 131.177 146.384C131.083 146.431 130.997 146.478 130.903 146.521C123.798 149.958 118.685 150.517 118.685 150.517C113.52 151.536 108.11 151.81 102.599 151.224C73.1533 148.087 51.8251 121.681 54.9618 92.2356C56.1064 81.4934 60.3564 71.8372 66.7157 64.0481V64.0716L66.7236 64.0364C69.7197 60.3684 73.1884 57.1145 77.0243 54.3606C78.5868 53.345 79.6884 52.72 79.6884 52.72C85.8329 48.3489 91.0947 47.3841 91.0947 47.3841C118.966 95.4856 79.4697 121.876 79.4697 121.876C79.4697 121.876 105.739 111.083 111.673 76.095C113.884 60.8294 110.11 47.7825 109.977 47.3216C107.661 39.6302 104.52 36.9934 104.52 36.9934L102.106 36.888L102.11 36.8997C67.3329 35.9895 37.1298 61.9348 33.3837 97.1262C29.4462 134.142 56.2587 167.345 93.2743 171.286C130.29 175.228 163.493 148.411 167.434 111.396C167.895 107.056 167.923 102.771 167.567 98.5755Z" fill="#3474BA"/>
</svg>
